<svg version="1" xmlns="http://www.w3.org/2000/svg" width="800" height="800" viewBox="0 0 600.000000 600.000000"><path d="M252 279.5V428h28.9l.3-63.3c.4-61.7.4-63.4 2.6-71.2 9.3-33.3 34.1-51.5 70.1-51.5 20.1 0 35.2 5.2 46 15.8 10.1 10 15.3 22.6 17.1 40.8.5 6.1 1 36.9 1 70.1V428h28.1l-.3-71.8-.3-71.7-2.7-9.7c-6.4-23.4-19.1-39.4-39.3-49.4-15-7.4-21.8-8.8-44-8.8-17.6 0-19.7.2-28.8 2.7-20 5.5-36.5 16.4-47.4 31.2l-2.2 3-.1-61.3V131h-29v148.5zM94.5 217.5C65.2 223 46 236.7 37.9 257.8c-2.7 7.2-3.7 21.7-1.9 30.4 1.9 10.2 6.2 17.8 13.5 24.6 12.3 11.3 22.8 15 66.2 23.7 27.6 5.5 33.9 7.3 41.6 11.8 9.4 5.6 13.6 12.4 13.7 22.3 0 16.3-10.3 27.2-30.5 32.1-9 2.1-37.6 2.4-48.5.4-15.7-2.8-38.6-11.8-47.7-18.7-1.7-1.3-3.5-2.4-4-2.4-.4 0-3.6 5-7 11l-6.2 11 4.7 3.6c9.8 7.5 29.3 15.2 49.2 19.6 9.1 1.9 13.4 2.2 32 2.2 23.6.1 31.3-1 46.3-6.4 33.8-12.4 48.6-42.4 36.6-74.5-1.7-4.5-3.8-7.5-9-12.6-11.8-11.7-22.1-15.5-64.1-24-35.7-7.2-42.1-9.4-50.9-17.6-6.5-6.1-8.3-11-7.7-21.2.4-6.1 1-8.8 3.1-12.3 7.9-13.5 24.3-19.8 51.3-19.8 21.3 0 40.1 4.6 54.8 13.5 3.2 1.9 6.1 3.5 6.5 3.5.7 0 1.8-1.7 8.5-14.1l4.6-8.7-7.8-4c-9.6-5-22.3-9.4-35.7-12.2-13.4-2.9-43.3-3.6-55-1.5z"/></svg>