<?xml version="1.0" encoding="UTF-8" standalone="no"?>
<svg
   xmlns:dc="http://purl.org/dc/elements/1.1/"
   xmlns:cc="http://creativecommons.org/ns#"
   xmlns:rdf="http://www.w3.org/1999/02/22-rdf-syntax-ns#"
   xmlns:svg="http://www.w3.org/2000/svg"
   xmlns="http://www.w3.org/2000/svg"
   xmlns:sodipodi="http://sodipodi.sourceforge.net/DTD/sodipodi-0.dtd"
   xmlns:inkscape="http://www.inkscape.org/namespaces/inkscape"
   version="1.1"
   id="Capa_1"
   x="0px"
   y="0px"
   viewBox="0 0 54.953 54.953"
   style="enable-background:new 0 0 54.953 54.953;"
   xml:space="preserve"
   width="512px"
   height="512px"
   sodipodi:docname="service-1.svg"
   inkscape:version="0.92.3 (2405546, 2018-03-11)"><metadata
   id="metadata11"><rdf:RDF><cc:Work
       rdf:about=""><dc:format>image/svg+xml</dc:format><dc:type
         rdf:resource="http://purl.org/dc/dcmitype/StillImage" /><dc:title></dc:title></cc:Work></rdf:RDF></metadata><defs
   id="defs9" /><sodipodi:namedview
   pagecolor="#ffffff"
   bordercolor="#666666"
   borderopacity="1"
   objecttolerance="10"
   gridtolerance="10"
   guidetolerance="10"
   inkscape:pageopacity="0"
   inkscape:pageshadow="2"
   inkscape:window-width="1280"
   inkscape:window-height="961"
   id="namedview7"
   showgrid="false"
   inkscape:zoom="0.4609375"
   inkscape:cx="256"
   inkscape:cy="256"
   inkscape:window-x="-8"
   inkscape:window-y="-8"
   inkscape:window-maximized="1"
   inkscape:current-layer="Capa_1" /><g
   id="g4"><path
     d="M45.297,21.946l9.656-5.517L27.477,0.825L0,16.429l9.656,5.517L0,27.429l9.656,5.517L0,38.429l27.477,15.698l27.476-15.698  l-9.656-5.483l9.656-5.517L45.297,21.946z M27.477,3.125l23.435,13.309l-23.435,13.39L4.041,16.434L27.477,3.125z M11.675,23.099  l15.802,9.028l15.802-9.028l7.633,4.335l-23.435,13.39L4.041,27.434L11.675,23.099z M50.912,38.434l-23.435,13.39L4.041,38.434  l7.634-4.335l15.802,9.028l15.802-9.028L50.912,38.434z"
     data-original="#000000"
     class="active-path"
     data-old_color="#1abc9c"
     fill="#1abc9c"
     id="path2" /></g> </svg>